<?xml version="1.0" encoding="UTF-8"?>
<svg version="1.1" viewBox="0 0 1080 1080" width="1280" height="1280" xmlns="http://www.w3.org/2000/svg">
<path transform="translate(0)" d="m0 0h1080v1080h-1080z" fill="#FDFDFD"/>
<path transform="translate(690,328)" d="m0 0 5 1 6 7 8 14 7 15 12 36 13 38 7 27 3 15 1 11v20l-3 7h-1v-21l-3-25-6-26-8-26-12-36-7-19-9-17-8-9h-5l-1 10 3 14 15 49 6 20 1 5v13l-4 8-9 5h-2v4l6 2 16 8 9 7 6 5 4 6 1 7-5 15-7 8-6 2h-15l-11-1h-25l-8 3 1 5 4 6 11 12 6 7 2 4v6l-6 8-6 4-8 1-9-8-13-8-9-3-13-2h-14l-19 3-13 7-1 5 5 5 24 5 13 5 4 5 1 2v9l-4 10-8 14-8 10-8 7-13 6-13 4-20 5-10 9-17 13-13 8-12 4-6 22-5 11-6 10-8 8-8 4-4 1h-9l-25-4 2-2 15-4 12-5 9-5 9-7 5-4 9-12 3-7v-6l-1-1-9-1-6-4-3-4-1-3v-10l8-24 5-9 3-2h7l5 5 2 6 1 22 9-2 9-5 10-8 3-1-2-6v-16l6-21 6-14 7-9 8-7 9-3 8-15 11-12 8-6 13-4 8-1h23l12 2 2-11 6-9 8-8 8-5 12-3h11l25 3 9-1 2-1-1-5-7-7-14-8-21-10-2-2 1-7 6-11 7-6 4-3v-11l-9-32-13-52v-12l3-12z" fill="#1F401F"/>
<path transform="translate(666,462)" d="m0 0h3l-1 7-10 13-6 7v-3l10-13 1-3-8 4-17 12-16 13-14 11-14 12-11 9-15 13-30 27-4 4h-2v2l-8 7-36 36-7 8-10 11-10 13-11 18-6 16-5 15-7 13-8 8-8 5-12 4-15 2h-13l4-3 16-8 13-9 3-1v-2l8-7 8-10 8-14 10-28 6-10 9-11 14-15 39-39 8-7 11-10 11-9 17-14 13-10 19-14 18-13 32-22 15-10z" fill="#1F401F"/>
<path transform="translate(440,478)" d="m0 0 9 2 6 4 4 6-1 9-3 12h-1l-2-10-4-5-9-4h-10l-3 3 1 9 4 6 10 6 3 1h12l13-5 3-1-2 4-8 11-14 7-12 5-11 7-10 9-8 9-6 12-1 6v9l3 9 6 8 9 4h12l12-4 10-6 10-9 9-10 8-13 1 3-8 16-8 12-11 13-10 9-14 7-5 1h-9l-9-3-7-6-4-7-2-8v-17l4-16 5-13 8-14 9-10 8-6-2-4-6-7-1-2v-14l8-16 7-7z" fill="#1F401F"/>
<path transform="translate(517,382)" d="m0 0 3 3 14 32 7 18 8 30 5 12 2 4 4 2 3 1h10l7-4 6-7 6-11 2-2 4 1 6 4h6l6-4 3-4 3-10h2l1 8h8l5-3 2-6-2-8 5-8 2 3 1 9-4 16-4 7-6 5-7-1-3-1-2 5-6 5-3 2h-7l-6-3-5-1-2 6-6 10-6 5-5 2h-11l-7-4-7-8-5-12-8-27-15-35-8-18 2-9z" fill="#1F401F"/>
<path transform="translate(360,608)" d="m0 0h1l-1 16v20l3 19 6 16 5 7v2l5 2h6l8-5 4-6 5-15 2-1-1 13-4 20-5 10-6 5h-10l-8-7-6-10-6-15-4-18-2-15-19 7-2 2v7l5 8 4 2 10 1 4 1-7 14-3 2-6-1-6-7-3-7-1-5v-18l2-11 4-6 4-3 13-5h2l3-11z" fill="#1F401F"/>
<path transform="translate(512,457)" d="m0 0 5 1 6 7 4 15v8l-7-7h-3l-1 23-2 12-5 12-7 9-11 7-14 5-12 3-3-1 17-13 12-12 8-13 5-12 3-13 2-24 2-6z" fill="#1F401F"/>
<path transform="translate(579,605)" d="m0 0 16 2 13 3 5 4 1 5-4 6-14 7-26 6h-4l2-6 7-14z" fill="#FEFEFE"/>
<path transform="translate(553,602)" d="m0 0h9l6 5 2 6v8l-3 7-7 8-3 2h-9l-5-3-4-5-1-3v-7l3-8 7-7z" fill="#FEFEFE"/>
<path transform="translate(714,544)" d="m0 0 3 4 6 11 4 5-1 4-8 7-4-1-7-9-4-10 7-8z" fill="#1F401F"/>
<path transform="translate(370,558)" d="m0 0 6 2 8 6-1 3-12 6h-9l-10-7 2-2 9-4z" fill="#1F401F"/>
<path transform="translate(365,578)" d="m0 0 6 1 9 6-4 4-11 4h-9l-10-6 1-2 14-5z" fill="#1F401F"/>
<path transform="translate(601,417)" d="m0 0 5 2 7 6-3 10-4 1-8-7 1-8z" fill="#1F401F"/>
<path transform="translate(619,412)" d="m0 0 7 6 4 2-1 5-3 7-5-2-6-5 1-8z" fill="#1F401F"/>
<path transform="translate(604,393)" d="m0 0 4 2 5 4 2 1-1 6-3 6-4-1-6-5-1-3z" fill="#1F401F"/>
<path transform="translate(370,710)" d="m0 0 1 3-1 8-7 3v-8l2-4z" fill="#1F401F"/>
<path transform="translate(362,703)" d="m0 0h2l-1 10-6 4h-1l1-10z" fill="#1F401F"/>
</svg>
